<svg width="101" height="16" viewBox="0 0 101 16" fill="none" xmlns="http://www.w3.org/2000/svg">
<path d="M2.03665 2.05017C2.02773 2.07548 2.02475 4.002 2.02773 6.33345L2.03665 10.5724L2.65517 10.5819L3.27072 10.5883V6.96613V3.34401H4.76647C6.96996 3.34401 7.53793 3.40411 8.39435 3.72046C8.56979 3.78689 8.74524 3.82169 9.02476 3.85016C9.90199 3.93557 10.5889 4.17283 11.0141 4.53662C11.3234 4.80235 11.3234 4.80551 11.2282 4.63152C11.0558 4.31518 10.8655 4.05578 10.5473 3.70464C9.65815 2.71765 8.77795 2.30324 7.12162 2.09129C6.57446 2.01853 2.06044 1.98374 2.03665 2.05017Z" fill="#97793c"/>
<path d="M0 8.26312V12.3281H3.17885C6.32797 12.3281 6.83944 12.3155 7.3747 12.2174C8.47793 12.0149 9.17674 11.4803 9.66145 10.4617C9.94692 9.86381 10.0569 9.43675 10.1105 8.70916C10.167 7.9879 10.0867 7.2445 9.89637 6.66559C9.73579 6.18158 9.73282 6.17842 9.45032 6.1025C9.11429 6.0076 8.88532 5.9728 8.43035 5.94749L8.04377 5.92851L8.16569 6.0677C8.47198 6.42201 8.70988 6.90601 8.80801 7.37103C8.89722 7.79493 8.89722 8.73447 8.80503 9.1647C8.68609 9.73728 8.37385 10.2909 8.01404 10.5787C7.51446 10.9773 7.00299 11.0311 3.54759 11.0311H1.27868L1.26381 10.9584C1.25489 10.9204 1.25191 9.68666 1.25489 8.21567L1.26381 5.54257L1.45115 5.53308L1.63552 5.52359V4.86244V4.19812H0.817759H0V8.26312Z" fill="#97793c"/>
<path d="M3.66344 4.85306L3.67236 5.51105L6.27432 5.53003C8.13881 5.54269 8.93873 5.55851 9.09633 5.58698C9.39964 5.64075 9.80704 5.77046 9.93193 5.8527C10.1133 5.96975 10.3215 6.19752 10.4672 6.43477C10.7824 6.94092 10.9162 7.4882 10.9162 8.24426C10.9162 10.1391 10.2531 11.6101 8.9982 12.4896C8.70083 12.6984 8.40347 12.8312 7.97823 12.9419C7.23184 13.1412 6.67576 13.1824 4.73693 13.1824H3.27091V12.9609V12.7395L2.65536 12.7458L2.03684 12.7553L2.02792 13.6158L2.02197 14.4794H4.33846C6.62819 14.4794 6.91068 14.4699 7.58273 14.3655C8.94467 14.1535 9.92004 13.6221 10.711 12.6572C11.6745 11.4773 12.1622 9.99996 12.1622 8.26007C12.1622 7.43758 12.0551 6.89031 11.7488 6.15007C11.6329 5.86219 11.2731 5.34656 11.0173 5.09032C10.5683 4.64428 10.149 4.44498 9.39667 4.31212C8.8406 4.21721 8.30533 4.19823 5.98587 4.19823H3.65749L3.66344 4.85306Z" fill="#97793c"/>
<path d="M18.0336 4.624C18.9136 4.624 19.6856 4.796 20.3496 5.14C21.0216 5.484 21.5376 5.976 21.8976 6.616C22.2656 7.248 22.4496 7.984 22.4496 8.824C22.4496 9.664 22.2656 10.4 21.8976 11.032C21.5376 11.656 21.0216 12.14 20.3496 12.484C19.6856 12.828 18.9136 13 18.0336 13H15.1056V4.624H18.0336ZM17.9736 11.572C18.8536 11.572 19.5336 11.332 20.0136 10.852C20.4936 10.372 20.7336 9.696 20.7336 8.824C20.7336 7.952 20.4936 7.272 20.0136 6.784C19.5336 6.288 18.8536 6.04 17.9736 6.04H16.7856V11.572H17.9736ZM24.5592 5.56C24.2632 5.56 24.0152 5.468 23.8152 5.284C23.6232 5.092 23.5272 4.856 23.5272 4.576C23.5272 4.296 23.6232 4.064 23.8152 3.88C24.0152 3.688 24.2632 3.592 24.5592 3.592C24.8552 3.592 25.0992 3.688 25.2912 3.88C25.4912 4.064 25.5912 4.296 25.5912 4.576C25.5912 4.856 25.4912 5.092 25.2912 5.284C25.0992 5.468 24.8552 5.56 24.5592 5.56ZM25.3872 6.352V13H23.7072V6.352H25.3872ZM26.615 9.652C26.615 8.98 26.747 8.384 27.011 7.864C27.283 7.344 27.647 6.944 28.103 6.664C28.567 6.384 29.083 6.244 29.651 6.244C30.147 6.244 30.579 6.344 30.947 6.544C31.323 6.744 31.623 6.996 31.847 7.3V6.352H33.539V13H31.847V12.028C31.631 12.34 31.331 12.6 30.947 12.808C30.571 13.008 30.135 13.108 29.639 13.108C29.079 13.108 28.567 12.964 28.103 12.676C27.647 12.388 27.283 11.984 27.011 11.464C26.747 10.936 26.615 10.332 26.615 9.652ZM31.847 9.676C31.847 9.268 31.767 8.92 31.607 8.632C31.447 8.336 31.231 8.112 30.959 7.96C30.687 7.8 30.395 7.72 30.083 7.72C29.771 7.72 29.483 7.796 29.219 7.948C28.955 8.1 28.739 8.324 28.571 8.62C28.411 8.908 28.331 9.252 28.331 9.652C28.331 10.052 28.411 10.404 28.571 10.708C28.739 11.004 28.955 11.232 29.219 11.392C29.491 11.552 29.779 11.632 30.083 11.632C30.395 11.632 30.687 11.556 30.959 11.404C31.231 11.244 31.447 11.02 31.607 10.732C31.767 10.436 31.847 10.084 31.847 9.676ZM38.8638 6.256C39.6558 6.256 40.2958 6.508 40.7838 7.012C41.2718 7.508 41.5158 8.204 41.5158 9.1V13H39.8358V9.328C39.8358 8.8 39.7038 8.396 39.4398 8.116C39.1758 7.828 38.8158 7.684 38.3598 7.684C37.8958 7.684 37.5278 7.828 37.2558 8.116C36.9918 8.396 36.8598 8.8 36.8598 9.328V13H35.1798V6.352H36.8598V7.18C37.0838 6.892 37.3678 6.668 37.7118 6.508C38.0638 6.34 38.4478 6.256 38.8638 6.256ZM42.6814 9.652C42.6814 8.98 42.8134 8.384 43.0774 7.864C43.3494 7.344 43.7134 6.944 44.1694 6.664C44.6334 6.384 45.1494 6.244 45.7174 6.244C46.2134 6.244 46.6454 6.344 47.0134 6.544C47.3894 6.744 47.6894 6.996 47.9134 7.3V6.352H49.6054V13H47.9134V12.028C47.6974 12.34 47.3974 12.6 47.0134 12.808C46.6374 13.008 46.2014 13.108 45.7054 13.108C45.1454 13.108 44.6334 12.964 44.1694 12.676C43.7134 12.388 43.3494 11.984 43.0774 11.464C42.8134 10.936 42.6814 10.332 42.6814 9.652ZM47.9134 9.676C47.9134 9.268 47.8334 8.92 47.6734 8.632C47.5134 8.336 47.2974 8.112 47.0254 7.96C46.7534 7.8 46.4614 7.72 46.1494 7.72C45.8374 7.72 45.5494 7.796 45.2854 7.948C45.0214 8.1 44.8054 8.324 44.6374 8.62C44.4774 8.908 44.3974 9.252 44.3974 9.652C44.3974 10.052 44.4774 10.404 44.6374 10.708C44.8054 11.004 45.0214 11.232 45.2854 11.392C45.5574 11.552 45.8454 11.632 46.1494 11.632C46.4614 11.632 46.7534 11.556 47.0254 11.404C47.2974 11.244 47.5134 11.02 47.6734 10.732C47.8334 10.436 47.9134 10.084 47.9134 9.676ZM59.5742 4.72V13H58.7342V6.388L55.7822 13H55.1702L52.2182 6.412V13H51.3782V4.72H52.2662L55.4702 11.896L58.6742 4.72H59.5742ZM61.0958 9.712C61.0958 9.04 61.2278 8.452 61.4918 7.948C61.7638 7.436 62.1358 7.044 62.6078 6.772C63.0878 6.492 63.6278 6.352 64.2278 6.352C64.8518 6.352 65.3878 6.496 65.8358 6.784C66.2918 7.072 66.6198 7.44 66.8198 7.888V6.448H67.6598V13H66.8198V11.548C66.6118 11.996 66.2798 12.368 65.8238 12.664C65.3758 12.952 64.8398 13.096 64.2158 13.096C63.6238 13.096 63.0878 12.956 62.6078 12.676C62.1358 12.396 61.7638 12 61.4918 11.488C61.2278 10.976 61.0958 10.384 61.0958 9.712ZM66.8198 9.724C66.8198 9.196 66.7118 8.732 66.4958 8.332C66.2798 7.932 65.9838 7.624 65.6078 7.408C65.2398 7.192 64.8318 7.084 64.3838 7.084C63.9198 7.084 63.5038 7.188 63.1358 7.396C62.7678 7.604 62.4758 7.908 62.2598 8.308C62.0518 8.7 61.9478 9.168 61.9478 9.712C61.9478 10.248 62.0518 10.72 62.2598 11.128C62.4758 11.528 62.7678 11.836 63.1358 12.052C63.5038 12.26 63.9198 12.364 64.3838 12.364C64.8318 12.364 65.2398 12.256 65.6078 12.04C65.9838 11.824 66.2798 11.516 66.4958 11.116C66.7118 10.716 66.8198 10.252 66.8198 9.724ZM70.4174 7.612C70.6014 7.204 70.8814 6.888 71.2574 6.664C71.6414 6.44 72.1094 6.328 72.6614 6.328V7.204H72.4334C71.8254 7.204 71.3374 7.368 70.9694 7.696C70.6014 8.024 70.4174 8.572 70.4174 9.34V13H69.5774V6.448H70.4174V7.612ZM75.0171 7.156V11.224C75.0171 11.624 75.0931 11.9 75.2451 12.052C75.3971 12.204 75.6651 12.28 76.0491 12.28H76.8171V13H75.9171C75.3251 13 74.8851 12.864 74.5971 12.592C74.3091 12.312 74.1651 11.856 74.1651 11.224V7.156H73.2531V6.448H74.1651V4.804H75.0171V6.448H76.8171V7.156H75.0171ZM78.6224 5.212C78.4544 5.212 78.3104 5.152 78.1904 5.032C78.0704 4.912 78.0104 4.764 78.0104 4.588C78.0104 4.412 78.0704 4.268 78.1904 4.156C78.3104 4.036 78.4544 3.976 78.6224 3.976C78.7904 3.976 78.9344 4.036 79.0544 4.156C79.1744 4.268 79.2344 4.412 79.2344 4.588C79.2344 4.764 79.1744 4.912 79.0544 5.032C78.9344 5.152 78.7904 5.212 78.6224 5.212ZM79.0424 6.448V13H78.2024V6.448H79.0424ZM84.0166 6.328C84.8006 6.328 85.4406 6.572 85.9366 7.06C86.4326 7.54 86.6806 8.24 86.6806 9.16V13H85.8526V9.256C85.8526 8.544 85.6726 8 85.3126 7.624C84.9606 7.248 84.4766 7.06 83.8606 7.06C83.2286 7.06 82.7246 7.26 82.3486 7.66C81.9726 8.06 81.7846 8.648 81.7846 9.424V13H80.9446V6.448H81.7846V7.564C81.9926 7.164 82.2926 6.86 82.6846 6.652C83.0766 6.436 83.5206 6.328 84.0166 6.328ZM88.1544 9.712C88.1544 9.04 88.2864 8.452 88.5504 7.948C88.8224 7.436 89.1944 7.044 89.6664 6.772C90.1464 6.492 90.6864 6.352 91.2864 6.352C91.9104 6.352 92.4464 6.496 92.8944 6.784C93.3504 7.072 93.6784 7.44 93.8784 7.888V6.448H94.7184V13H93.8784V11.548C93.6704 11.996 93.3384 12.368 92.8824 12.664C92.4344 12.952 91.8984 13.096 91.2744 13.096C90.6824 13.096 90.1464 12.956 89.6664 12.676C89.1944 12.396 88.8224 12 88.5504 11.488C88.2864 10.976 88.1544 10.384 88.1544 9.712ZM93.8784 9.724C93.8784 9.196 93.7704 8.732 93.5544 8.332C93.3384 7.932 93.0424 7.624 92.6664 7.408C92.2984 7.192 91.8904 7.084 91.4424 7.084C90.9784 7.084 90.5624 7.188 90.1944 7.396C89.8264 7.604 89.5344 7.908 89.3184 8.308C89.1104 8.7 89.0064 9.168 89.0064 9.712C89.0064 10.248 89.1104 10.72 89.3184 11.128C89.5344 11.528 89.8264 11.836 90.1944 12.052C90.5624 12.26 90.9784 12.364 91.4424 12.364C91.8904 12.364 92.2984 12.256 92.6664 12.04C93.0424 11.824 93.3384 11.516 93.5544 11.116C93.7704 10.716 93.8784 10.252 93.8784 9.724Z" fill="#97793c"/>
</svg>
